Coordinates
version=1
nRows=34
nColumns=38
inDegrees=no

Units are S.I. units (second, meters, Newtons, ...)
If the header above contains a line with 'inDegrees', this indicates whether rotational values are in degrees (yes) or radians (no).

endheader
time	pelvis_tilt	pelvis_list	pelvis_rotation	pelvis_tx	pelvis_ty	pelvis_tz	hip_flexion_r	hip_adduction_r	hip_rotation_r	knee_angle_r	ankle_angle_r	subtalar_angle_r	mtp_angle_r	hip_flexion_l	hip_adduction_l	hip_rotation_l	knee_angle_l	ankle_angle_l	subtalar_angle_l	mtp_angle_l	lumbar_extension	lumbar_bending	lumbar_rotation	arm_flex_r	arm_add_r	arm_rot_r	elbow_flex_r	pro_sup_r	wrist_flex_r	wrist_dev_r	arm_flex_l	arm_add_l	arm_rot_l	elbow_flex_l	pro_sup_l	wrist_flex_l	wrist_dev_l
0	3.04543	1.17296	-1.25215	0.920249	-0.691411	1.06811	0.0358902	0.078021	-0.244921	0.480267	-0.128632	0	0	-0.453125	-0.297945	-0.222708	0.925152	-0.180136	0	0	-0.513819	0.232805	-0.135999	0.721249	-0.413866	0.70446	1.15045	0.675509	0	0	0.247769	-0.529801	-0.0457886	1.21577	0.710544	0	0
0.01	3.11526	1.16993	-1.32077	0.922828	-0.682527	1.07217	0.0328022	0.0484207	-0.244147	0.51533	-0.140811	0	0	-0.446476	-0.208527	-0.0487876	0.933385	-0.149119	0	0	-0.535027	0.197822	-0.128286	0.710836	-0.410178	0.673069	1.15175	0.685275	0	0	0.27797	-0.536195	-0.0226434	1.20672	0.713613	0	0
0.02	3.04915	1.16416	-1.26604	0.923226	-0.668101	1.07084	0.0330384	0.0772056	-0.244768	0.534416	-0.149512	0	0	-0.405715	-0.302977	-0.195518	1.042	-0.236286	0	0	-0.527124	0.22574	-0.112739	0.716025	-0.417883	0.688308	1.15217	0.683288	0	0	0.268385	-0.527167	-0.027051	1.20332	0.713524	0	0
0.03	3.1076	1.16421	-1.32059	0.925097	-0.657849	1.07521	0.0252792	0.0511902	-0.253089	0.551465	-0.159347	0	0	-0.388519	-0.220096	-0.0427833	1.06096	-0.208605	0	0	-0.543148	0.196716	-0.113074	0.706982	-0.411316	0.663398	1.15338	0.695833	0	0	0.283941	-0.532846	-0.0179337	1.20212	0.715197	0	0
0.04	3.10471	1.16205	-1.3218	0.926288	-0.645679	1.07701	0.0180457	0.0522363	-0.257408	0.561804	-0.164335	0	0	-0.357165	-0.224699	-0.037585	1.12153	-0.228423	0	0	-0.547164	0.195095	-0.105963	0.706116	-0.411924	0.660613	1.15402	0.699286	0	0	0.285977	-0.532028	-0.0163282	1.20113	0.714101	0	0
0.05	3.07636	1.16008	-1.30144	0.92735	-0.632767	1.07765	0.0115171	0.0643721	-0.259765	0.569964	-0.164967	0	0	-0.316983	-0.266467	-0.087965	1.19459	-0.276611	0	0	-0.545238	0.203949	-0.0944253	0.70947	-0.417987	0.670409	1.15547	0.689358	0	0	0.283589	-0.531249	-0.0127922	1.19974	0.7141	0	0
0.06	3.10356	1.16091	-1.33089	0.928807	-0.621833	1.08058	0.00214067	0.0509465	-0.264897	0.579188	-0.166189	0	0	-0.292384	-0.228096	-0.0243025	1.22511	-0.267487	0	0	-0.551704	0.187367	-0.0922153	0.710495	-0.416258	0.668861	1.15273	0.687371	0	0	0.290347	-0.532135	-0.0108177	1.19857	0.713366	0	0
0.07	3.10624	1.16258	-1.33962	0.930182	-0.609851	1.08237	-0.00603016	0.0487514	-0.267414	0.585155	-0.163978	0	0	-0.260203	-0.226305	-0.0174152	1.26472	-0.278368	0	0	-0.552636	0.180354	-0.0841991	0.708406	-0.41839	0.666545	1.15473	0.686882	0	0	0.292737	-0.532944	-0.00648432	1.19868	0.712251	0	0
0.08	3.11065	1.16529	-1.3512	0.931648	-0.597803	1.08425	-0.0145727	0.0461027	-0.26854	0.588925	-0.160192	0	0	-0.229584	-0.222335	-0.0121442	1.29708	-0.287582	0	0	-0.552945	0.171621	-0.0751418	0.704915	-0.421149	0.662911	1.15808	0.687062	0	0	0.29502	-0.533715	-0.00190508	1.19925	0.71068	0	0
0.09	3.11788	1.16792	-1.36642	0.933113	-0.585838	1.08632	-0.0242604	0.0428651	-0.267537	0.590892	-0.156205	0	0	-0.201308	-0.215854	-0.00930072	1.32392	-0.287478	0	0	-0.553745	0.161317	-0.0651429	0.700184	-0.424399	0.657552	1.16238	0.687459	0	0	0.298542	-0.534306	0.00410425	1.19926	0.710517	0	0
0.1	3.12697	1.17081	-1.38358	0.934464	-0.573908	1.0885	-0.0344598	0.0391569	-0.265725	0.591337	-0.152554	0	0	-0.174415	-0.207834	-0.00896319	1.34502	-0.277659	0	0	-0.554442	0.150322	-0.0553329	0.6948	-0.427718	0.651444	1.16713	0.688198	0	0	0.302083	-0.534545	0.00995692	1.19929	0.71102	0	0
0.11	3.13742	1.17545	-1.40226	0.935787	-0.561955	1.09065	-0.0429112	0.0346699	-0.26309	0.591895	-0.146248	0	0	-0.147047	-0.198323	-0.010364	1.3607	-0.253976	0	0	-0.556083	0.13768	-0.0385781	0.676472	-0.435224	0.624169	1.18371	0.7017	0	0	0.31305	-0.533043	0.0241246	1.19871	0.707869	0	0
0.12	-3.13625	1.17844	-1.41865	0.936886	-0.550305	1.09296	-0.0538354	0.0310015	-0.261916	0.589265	-0.144576	0	0	-0.121055	-0.189691	-0.012346	1.37091	-0.24238	0	0	-0.556353	0.126987	-0.0302324	0.671973	-0.43832	0.619899	1.18716	0.699259	0	0	0.316332	-0.532754	0.0283809	1.19857	0.707084	0	0
0.13	-3.12727	1.18188	-1.43381	0.937874	-0.53868	1.09525	-0.0647547	0.0275896	-0.260721	0.585178	-0.142919	0	0	-0.0949062	-0.181235	-0.0142692	1.37592	-0.23189	0	0	-0.556826	0.116761	-0.02107	0.664857	-0.44217	0.611278	1.1934	0.698631	0	0	0.321349	-0.532339	0.0346465	1.1983	0.708251	0	0
0.14	-3.11861	1.18552	-1.4482	0.938748	-0.527063	1.0975	-0.0761346	0.0242499	-0.259559	0.580392	-0.140473	0	0	-0.0697996	-0.173304	-0.0161958	1.37574	-0.222601	0	0	-0.557486	0.106782	-0.0107403	0.655236	-0.446912	0.598724	1.20195	0.699693	0	0	0.328132	-0.531108	0.0423728	1.19755	0.710104	0	0
0.15	-3.10938	1.18895	-1.46263	0.939463	-0.515534	1.09968	-0.0880777	0.0204352	-0.259049	0.575367	-0.137169	0	0	-0.0461592	-0.165692	-0.0193389	1.37021	-0.213006	0	0	-0.558564	0.0967146	0.000529572	0.6434	-0.452583	0.58283	1.21235	0.702645	0	0	0.336472	-0.529166	0.0515166	1.19657	0.710829	0	0
0.16	-3.09856	1.19223	-1.47861	0.940023	-0.504068	1.10173	-0.0995054	0.0151491	-0.260152	0.571378	-0.134026	0	0	-0.0241608	-0.157691	-0.0246913	1.35935	-0.203212	0	0	-0.560306	0.0863075	0.0127261	0.629437	-0.459106	0.56349	1.22527	0.707212	0	0	0.346296	-0.52667	0.0621231	1.19549	0.711405	0	0
0.17	-3.08826	1.1951	-1.49387	0.940426	-0.492622	1.10362	-0.111056	0.00984149	-0.262416	0.567483	-0.131868	0	0	-0.00405447	-0.150245	-0.0315332	1.34364	-0.195366	0	0	-0.561889	0.0769547	0.0224073	0.618254	-0.463461	0.547711	1.23555	0.711185	0	0	0.353293	-0.524942	0.0696081	1.19538	0.712354	0	0
0.18	-3.07783	1.19969	-1.51004	0.940879	-0.481029	1.10518	-0.119855	0.00430573	-0.263765	0.565243	-0.127918	0	0	0.0161779	-0.142892	-0.0400654	1.3235	-0.184943	0	0	-0.564866	0.0664252	0.0406331	0.590501	-0.469424	0.504394	1.25951	0.734162	0	0	0.36929	-0.520946	0.0877286	1.19386	0.715228	0	0
0.19	-3.07098	1.2017	-1.52258	0.941183	-0.46974	1.10665	-0.130942	0.000575033	-0.26493	0.562242	-0.126991	0	0	0.0331036	-0.138423	-0.0504423	1.30084	-0.182108	0	0	-0.567307	0.0594956	0.0498844	0.590487	-0.482806	0.510305	1.26894	0.725341	0	0	0.374558	-0.518704	0.0921609	1.19449	0.716458	0	0
0.2	-3.06761	1.20377	-1.53197	0.941431	-0.458474	1.10788	-0.141528	-0.00150907	-0.264992	0.559244	-0.126076	0	0	0.049575	-0.138544	-0.0668979	1.27597	-0.1824	0	0	-0.568049	0.0535834	0.0574414	0.5866	-0.486612	0.506033	1.27466	0.721945	0	0	0.377483	-0.517701	0.0948935	1.19531	0.716802	0	0
0.21	-3.10326	1.20124	-1.52183	0.943283	-0.44493	1.10839	-0.158118	0.0118656	-0.241969	0.552368	-0.123871	0	0	0.0565972	-0.220591	-0.217715	1.26762	-0.246248	0	0	-0.567715	0.0564366	0.0870253	0.578397	-0.498019	0.504363	1.2863	0.716249	0	0	0.373348	-0.511297	0.0962801	1.19544	0.716895	0	0
0.22	-3.09454	1.20362	-1.53517	0.943277	-0.434003	1.10937	-0.16789	0.00762798	-0.240896	0.550328	-0.121925	0	0	0.0696333	-0.215067	-0.230191	1.23446	-0.253615	0	0	-0.568818	0.0492063	0.0919011	0.5755	-0.499934	0.499527	1.29081	0.715353	0	0	0.376425	-0.510649	0.0976053	1.19646	0.717048	0	0
0.23	-3.08568	1.20589	-1.54821	0.943127	-0.423208	1.11011	-0.177188	0.0035722	-0.238359	0.548837	-0.119047	0	0	0.0812628	-0.208847	-0.24139	1.19853	-0.257677	0	0	-0.569821	0.0422895	0.0964207	0.572445	-0.501352	0.493653	1.29508	0.715958	0	0	0.380204	-0.510188	0.0997595	1.19697	0.717307	0	0
0.24	-3.07307	1.21161	-1.56371	0.942957	-0.41201	1.11052	-0.18332	-0.00136455	-0.236295	0.547614	-0.114212	0	0	0.0948586	-0.200548	-0.250152	1.15928	-0.260304	0	0	-0.572976	0.0329996	0.112003	0.55111	-0.513947	0.464622	1.32069	0.718921	0	0	0.396542	-0.504779	0.114554	1.19645	0.718903	0	0
0.25	-3.06366	1.21218	-1.57617	0.942566	-0.401389	1.11088	-0.19423	-0.00530981	-0.233738	0.54682	-0.107738	0	0	0.101667	-0.193441	-0.259338	1.11843	-0.255276	0	0	-0.55772	0.0325994	0.0801318	0.592311	-0.477235	0.516513	1.26299	0.72666	0	0	0.36204	-0.516999	0.0790498	1.19543	0.717304	0	0
0.26	-3.0585	1.20983	-1.58361	0.941769	-0.391086	1.11117	-0.208076	-0.00772463	-0.231434	0.544731	-0.103689	0	0	0.104425	-0.18737	-0.267624	1.07605	-0.251881	0	0	-0.543712	0.0351738	0.0412435	0.651578	-0.441975	0.602597	1.19292	0.702037	0	0	0.31899	-0.528233	0.0311698	1.19683	0.716935	0	0
0.27	-3.05354	1.20956	-1.5909	0.940797	-0.380504	1.11116	-0.218711	-0.0107368	-0.229016	0.545306	-0.0994178	0	0	0.10739	-0.180874	-0.275705	1.03168	-0.245677	0	0	-0.53994	0.0340117	0.0304073	0.667142	-0.428828	0.622472	1.17204	0.702638	0	0	0.306934	-0.531365	0.0170869	1.19767	0.715585	0	0
0.28	-3.04937	1.2096	-1.59653	0.939575	-0.369853	1.11093	-0.229288	-0.0133684	-0.226534	0.546472	-0.0938329	0	0	0.109526	-0.173687	-0.281619	0.985911	-0.238387	0	0	-0.536199	0.0335712	0.0203325	0.679165	-0.415944	0.63642	1.15368	0.706736	0	0	0.296226	-0.534237	0.00492038	1.19856	0.714026	0	0
0.29	-3.04528	1.20997	-1.60088	0.938073	-0.359154	1.11052	-0.240051	-0.0159843	-0.226426	0.54738	-0.0863129	0	0	0.110779	-0.165108	-0.284111	0.937781	-0.22743	0	0	-0.531788	0.0335018	0.00852539	0.685749	-0.396875	0.638806	1.13388	0.715031	0	0	0.284649	-0.537334	-0.00811092	1.20007	0.712425	0	0
0.3	-3.04306	1.21107	-1.6029	0.936354	-0.34838	1.10989	-0.250128	-0.0180175	-0.227335	0.547619	-0.0809962	0	0	0.111847	-0.156896	-0.285095	0.888897	-0.218854	0	0	-0.529001	0.0343845	0.00190904	0.693269	-0.391136	0.647827	1.12476	0.715107	0	0	0.279012	-0.538512	-0.0146508	1.20093	0.711519	0	0
0.31	-3.04103	1.21357	-1.60448	0.934463	-0.337489	1.109	-0.258007	-0.0202398	-0.228204	0.549551	-0.0773424	0	0	0.11332	-0.148328	-0.284422	0.838345	-0.216038	0	0	-0.526814	0.0350931	-0.000782531	0.695286	-0.39047	0.648832	1.12429	0.71508	0	0	0.277491	-0.538495	-0.0168314	1.20248	0.710642	0	0
0.32	-3.04037	1.21707	-1.60275	0.932209	-0.326594	1.1078	-0.264954	-0.0215487	-0.230642	0.551792	-0.0709965	0	0	0.1157	-0.13908	-0.278073	0.787322	-0.205264	0	0	-0.522735	0.0374041	-0.00708284	0.700297	-0.387727	0.654509	1.11968	0.714709	0	0	0.273017	-0.538798	-0.0222324	1.20514	0.710623	0	0
0.33	-3.04151	1.22159	-1.59714	0.92964	-0.315786	1.10633	-0.270738	-0.0215897	-0.234524	0.554517	-0.0638054	0	0	0.119069	-0.129594	-0.266516	0.735461	-0.190299	0	0	-0.517877	0.0410172	-0.0143674	0.701947	-0.383011	0.6524	1.1155	0.724205	0	0	0.269382	-0.539151	-0.0266774	1.20814	0.710992	0	0
